# xmcd
#
# Track frame offsets:
#      150
#      14196
#      29872
#      43894
# 
# Disc length: 731 seconds
#
# Revision: 2
# Processed by: cddbd v1.4PL0 Copyright (c) Steve Scherf et al.
#
# Submitted via: FreeRIP 1.20
#
DISCID=3a02d904
DTITLE=Schnockered - Schnockered
DYEAR=1998
DGENRE=Rock
TTITLE0=Vodka Lemonade
TTITLE1=Bus
TTITLE2=Boiler Maker
TTITLE3=Bye Bye Baby
EXTD=
EXTT0=
EXTT1=
EXTT2=
EXTT3=
PLAYORDER=
